:SAMPLES-PER-SECOND 30
:FULLY-SPECIFIED
:DEGREES
473
root  -30.1805 37.5226 16.9242 176.178 -84.4056 172.712
RightUpLeg  2.64642 1.12025 -8.93236
RightLeg  39.5019 -3.19656 -3.10036
RightFoot  -27.5518 0.734509 6.47126
RightToes  0.00048216 0.542163 -0.142577
Spine  24.744 -0.399254 5.70287
Spine1  13.9636 2.01833 -3.32017
HEad  22.1726 -16.2051 -0.777956
LeftShoulder1  6.06411 -9.48691 -40.3908
LeftArm  -21.2136 53.4415 -31.1391
LeftForeArm  17.9778 -28.3794 -5.15908
LeftHand  -0.25398 0.0180481 5.50724
RightShoulder  4.67307 8.03539 34.543
RightArm  -7.38773 -9.53624 32.252
RightForeArm  -0.860739 31.6875 7.0173
RightHand  -0.725936 0.260655 -14.9344
LeftUpLeg  -14.8897 12.4986 15.535
LeftLeg  1.21571 15.7646 -3.12737
LeftFoot  1.63874 0.439343 -3.97189
LeftToes  1.06246e-005 4.65855e-005 -8.18505e-006
474
root  -28.9685 37.6568 16.0733 -175.827 -86.2445 165.094
RightUpLeg  0.0455165 -0.648317 -7.87175
RightLeg  40.781 -3.38006 -3.41104
RightFoot  -26.6112 0.628705 6.03413
RightToes  0.00048216 0.542163 -0.142577
Spine  23.7325 -1.23755 6.09382
Spine1  13.6949 0.835976 -2.55037
HEad  24.0424 -16.2546 -1.69261
LeftShoulder1  6.11514 -9.56081 -40.5092
LeftArm  -21.7041 49.6161 -33.6778
LeftForeArm  23.9001 -24.9346 -4.07136
LeftHand  -0.25398 0.0180481 5.50724
RightShoulder  4.6309 8.02496 34.217
RightArm  -9.17696 -7.2535 32.784
RightForeArm  -0.665727 32.5309 7.22898
RightHand  -0.786632 0.588847 -15.3228
LeftUpLeg  -15.6373 12.0355 14.2725
LeftLeg  0.544751 16.03 -3.78681
LeftFoot  0.51602 0.563731 -5.43198
LeftToes  1.06246e-005 4.65855e-005 -8.18505e-006
475
root  -27.804 37.9145 15.2829 -145.153 -87.8874 134.412
RightUpLeg  -1.60502 -2.60464 -7.16981
RightLeg  40.8727 -4.06642 -4.05048
RightFoot  -24.8867 0.393497 4.71244
RightToes  0.00048216 0.542163 -0.142577
Spine  23.4013 -1.82632 5.72231
Spine1  13.4146 -0.259384 -1.44873
HEad  25.8499 -17.0131 -2.10522
LeftShoulder1  6.47149 -10.1196 -41.1657
LeftArm  -22.5763 46.0698 -34.7589
LeftForeArm  30.0516 -24.3624 -3.63444
LeftHand  -0.25398 0.0180481 5.50724
RightShoulder  4.54821 7.97007 33.6939
RightArm  -10.2745 -5.87919 33.2089
RightForeArm  -0.79186 33.7997 7.58089
RightHand  -0.821816 0.744299 -15.6133
LeftUpLeg  -17.0866 14.2769 11.4478
LeftLeg  5.04154 15.232 -3.03856
LeftFoot  1.08216 0.688067 -6.38512
LeftToes  1.06246e-005 4.65855e-005 -8.18505e-006
476
root  -26.689 38.284 14.5788 -89.6464 -88.1526 78.4717
RightUpLeg  -2.09303 -4.62067 -6.57288
RightLeg  39.4097 -4.82206 -4.52031
RightFoot  -22.4063 0.112185 2.72453
RightToes  0.00048216 0.542163 -0.142577
Spine  23.5357 -2.26574 5.60682
Spine1  13.4475 -1.00199 -0.58029
HEad  27.4822 -18.7546 -2.03601
LeftShoulder1  6.90798 -10.7342 -42.1212
LeftArm  -22.2329 42.4608 -34.402
LeftForeArm  33.8125 -26.4899 -3.8924
LeftHand  -0.25398 0.0180481 5.50724
RightShoulder  4.50607 7.96288 33.3536
RightArm  -10.6296 -5.40042 33.1219
RightForeArm  -1.46297 35.8151 8.19075
RightHand  -0.793859 0.472539 -15.7548
LeftUpLeg  -18.6438 20.9299 6.48972
LeftLeg  12.6523 8.97806 0.567919
LeftFoot  0.939698 0.642421 -6.01189
LeftToes  1.06246e-005 4.65855e-005 -8.18505e-006
477
root  -25.6278 38.7266 13.9412 -58.2852 -87.163 46.9415
RightUpLeg  -2.36254 -6.66116 -6.17688
RightLeg  36.8076 -4.78488 -4.11197
RightFoot  -19.4528 -0.039889 1.31631
RightToes  0.00048216 0.542163 -0.142577
Spine  23.2543 -2.49149 5.69304
Spine1  13.8506 -1.41103 0.0437985
HEad  29.3749 -20.9097 -1.9137
LeftShoulder1  7.22924 -11.1526 -42.8727
LeftArm  -21.2767 38.5795 -33.7017
LeftForeArm  35.6707 -29.7809 -4.51719
LeftHand  -0.25398 0.0180481 5.50724
RightShoulder  4.46542 7.94708 33.0538
RightArm  -10.1216 -5.46544 32.8335
RightForeArm  -2.2781 37.8567 8.85005
RightHand  -0.763824 0.186928 -15.9032
LeftUpLeg  -18.9995 21.3858 3.81525
LeftLeg  20.2668 8.07141 3.88861
LeftFoot  -0.152129 0.449203 -4.57055
LeftToes  1.06246e-005 4.65855e-005 -8.18505e-006
478
root  -24.6118 39.1951 13.3394 -48.8724 -86.2399 37.9831
RightUpLeg  -3.03762 -9.05864 -5.8322
RightLeg  33.6062 -3.985 -3.10888
RightFoot  -16.1958 -0.102319 0.135857
RightToes  0.00048216 0.542163 -0.142577
Spine  22.3479 -2.48994 5.48822
Spine1  14.239 -1.71345 0.827509
HEad  31.7705 -22.564 -2.27616
LeftShoulder1  7.38999 -11.3919 -43.1384
LeftArm  -21.2197 34.9171 -33.6543
LeftForeArm  37.1849 -33.3708 -5.27651
LeftHand  -0.25398 0.0180481 5.50724
RightShoulder  4.3456 7.81154 32.4612
RightArm  -8.68571 -5.69181 32.8596
RightForeArm  -2.66296 38.9806 9.22816
RightHand  -0.796281 0.372352 -16.0629
LeftUpLeg  -18.4806 18.2388 3.01791
LeftLeg  27.9194 11.0817 6.62617
LeftFoot  -1.32119 0.30727 -3.42303
LeftToes  1.06246e-005 4.65855e-005 -8.18505e-006
479
root  -23.6117 39.6094 12.7677 -42.8527 -85.6657 32.7111
RightUpLeg  -3.94323 -11.9917 -5.20672
RightLeg  30.2235 -2.75826 -1.98606
RightFoot  -12.8173 -0.106645 -1.69251
RightToes  0.00048216 0.542163 -0.142577
Spine  21.3289 -2.46752 5.03578
Spine1  14.3035 -2.12858 1.90784
HEad  34.25 -23.2395 -3.22414
LeftShoulder1  7.41324 -11.5011 -42.9481
LeftArm  -21.8002 31.8449 -34.1484
LeftForeArm  38.5153 -37.2325 -6.1861
LeftHand  -0.25398 0.0180481 5.50724
RightShoulder  4.17538 7.61983 31.5908
RightArm  -6.6372 -6.01195 33.3437
RightForeArm  -2.69369 39.0039 9.23873
RightHand  -0.868467 0.901662 -16.0922
LeftUpLeg  -17.7663 17.0176 1.98166
LeftLeg  35.4175 11.8718 9.26341
LeftFoot  -2.45242 0.251186 -3.04411
LeftToes  1.06246e-005 4.65855e-005 -8.18505e-006
